<svg width="571" height="139" viewBox="0 0 571 139" fill="none" xmlns="http://www.w3.org/2000/svg">
<mask id="mask0_19381_23" style="mask-type:alpha" maskUnits="userSpaceOnUse" x="0" y="0" width="571" height="139">
<path d="M38.5905 30.7152L59.9112 81.8849L81.4451 30.7152H118.33L71.4243 136.253H46.9055L0 30.7152H38.5905Z" fill="#3478F5"/>
<path d="M194.963 128.79C190.983 131.633 186.648 133.978 181.957 135.826C177.409 137.532 172.434 138.385 167.033 138.385C159.499 138.385 152.535 136.963 146.138 134.121C139.742 131.278 134.199 127.369 129.508 122.394C124.818 117.419 121.122 111.663 118.421 105.124C115.863 98.4439 114.584 91.266 114.584 83.5905C114.584 75.9151 115.863 68.7371 118.421 62.0566C121.122 55.3761 124.818 49.5485 129.508 44.5737C134.199 39.5988 139.671 35.69 145.925 32.8473C152.179 30.0045 158.931 28.5831 166.18 28.5831C171.723 28.5831 176.84 29.507 181.531 31.3548C186.363 33.0605 190.841 35.3347 194.963 38.1774V30.7152H227.583V136.253H194.963V128.79ZM191.765 68.666C189.775 66.6761 187.074 64.9704 183.663 63.5491C180.252 61.9856 176.414 61.2038 172.15 61.2038C165.896 61.2038 160.708 63.3359 156.586 67.6C152.464 71.8641 150.403 77.1943 150.403 83.5905C150.403 89.8446 152.392 95.1037 156.372 99.3678C160.494 103.632 165.967 105.764 172.789 105.764C176.911 105.764 180.607 105.053 183.876 103.632C187.145 102.068 189.775 100.363 191.765 98.515V68.666Z" fill="#3478F5"/>
<path d="M319.852 80.1792C319.852 76.91 319.426 74.2094 318.573 72.0773C317.72 69.9453 316.654 68.0975 315.375 66.534C311.963 62.9805 307.628 61.2038 302.369 61.2038C298.247 61.2038 294.338 62.0566 290.643 63.7623C287.089 65.4679 284.104 67.6711 281.688 70.3717V136.253H245.869V30.7152H278.49V40.5227C282.328 36.8271 286.734 33.9133 291.709 31.7812C296.684 29.6492 302.156 28.5831 308.126 28.5831C314.948 28.5831 321.274 29.8624 327.101 32.4209C332.929 34.8372 338.046 38.3196 342.452 42.868C346.574 47.1321 349.772 52.3202 352.046 58.4321C354.463 64.544 355.671 71.8641 355.671 80.3924V136.253H319.852V80.1792Z" fill="#3478F5"/>
<path d="M499.149 87.0018C499.149 90.271 499.576 92.9716 500.428 95.1037C501.281 97.2358 502.347 99.0125 503.627 100.434C505.332 102.424 507.251 103.845 509.383 104.698C511.657 105.409 514.003 105.764 516.419 105.764C520.257 105.764 523.739 104.982 526.866 103.419C529.993 101.713 532.765 99.8653 535.181 97.8754V30.7152H571V136.253H538.379V127.511C534.542 130.78 530.206 133.41 525.374 135.4C520.541 137.39 515.424 138.385 510.023 138.385C503.342 138.385 497.088 137.177 491.261 134.76C485.575 132.202 480.6 128.719 476.336 124.313C472.214 120.191 469.016 115.145 466.742 109.175C464.468 103.206 463.33 95.9565 463.33 87.4283V30.7152H499.149V87.0018Z" fill="#3478F5"/>
<path d="M453.664 128.324C449.969 131.167 445.491 133.512 440.232 135.36C435.115 137.066 429.217 137.918 422.536 137.918C417.277 137.918 412.018 137.137 406.759 135.573C401.5 134.01 396.809 131.167 392.687 127.045C389.702 124.06 387.215 120.364 385.225 115.958C383.235 111.41 382.24 105.511 382.24 98.2618V52.9686H351.058L418.059 0V30.2487H447.268V52.9686H418.059V95.7033C418.059 98.1196 418.272 99.9674 418.698 101.247C419.267 102.526 420.049 103.592 421.044 104.445C422.891 106.15 425.45 107.003 428.719 107.003C431.135 107.003 433.481 106.648 435.755 105.937C438.171 105.227 440.161 104.374 441.725 103.379L453.664 128.324Z" fill="#3478F5"/>
</mask>
<g mask="url(#mask0_19381_23)">
<rect width="1325.47" height="500.406" transform="matrix(-0.782107 0.623145 -0.624956 -0.78066 896.157 -269.134)" fill="#01A333"/>
<rect width="1325.47" height="500.406" transform="matrix(-0.782107 0.623145 -0.624956 -0.78066 1211.42 106.311)" fill="#96D94E"/>
</g>
</svg>
